<?xml version="1.0" encoding="UTF-8" standalone="no"?> <svg xmlns="http://www.w3.org/2000/svg" viewBox="0 0 64 64"><defs><style>.cls-1{fill:#999;}.cls-1,.cls-10,.cls-2,.cls-3,.cls-4,.cls-5,.cls-6,.cls-7,.cls-8,.cls-9{stroke:#54596e;stroke-linecap:round;stroke-linejoin:round;stroke-width:2px;}.cls-2{fill:#bfad88;}.cls-3{fill:#ffd578;}.cls-4{fill:none;}.cls-5{fill:#fff35f;}.cls-6{fill:#61c5a8;}.cls-7{fill:#55a6ff;}.cls-8{fill:#f4a14e;}.cls-9{fill:#f99;}.cls-10{fill:#9af43b;}</style></defs><title>distribute</title><g id="distribute"><path class="cls-1" d="M40.63,36H34.5V31h-5v5H23.87C21.46,36,19,37.68,19,39.74V43H45V39.32C45,37.48,42.77,36,40.63,36Z"/><path class="cls-2" d="M41,27.5l.5-6.1A7.18,7.18,0,0,0,34.56,14H29.44a7.18,7.18,0,0,0-6.94,7.4l.5,6.1"/><path class="cls-3" d="M28.68,22.94c-5,0-5.68-4.33-5.68.48v4a11.86,11.86,0,0,0,2.76,7A8.21,8.21,0,0,0,32,37a8.21,8.21,0,0,0,6.24-2.5,11.86,11.86,0,0,0,2.76-7v-4C41,18.61,33.65,22.94,28.68,22.94Z"/><line class="cls-4" x1="8.29" y1="54.71" x2="15.36" y2="47.64"/><circle class="cls-5" cx="5" cy="58" r="4" transform="translate(-39.55 20.52) rotate(-45)"/><line class="cls-4" x1="56.07" y1="54.71" x2="49" y2="47.64"/><circle class="cls-6" cx="59" cy="58" r="4" transform="translate(-23.73 58.71) rotate(-45)"/><line class="cls-4" x1="8.29" y1="10.93" x2="16" y2="19"/><circle class="cls-7" cx="5" cy="8" r="4" transform="translate(-4.19 5.88) rotate(-45)"/><line class="cls-4" x1="56.07" y1="10.93" x2="49" y2="19"/><circle class="cls-8" cx="59" cy="8" r="4" transform="translate(16.01 49.2) rotate(-51.5)"/><circle class="cls-9" cx="59" cy="33" r="4" transform="translate(-3.55 58.63) rotate(-51.5)"/><circle class="cls-10" cx="5" cy="33" r="4" transform="translate(-23.94 16.37) rotate(-51.5)"/><line class="cls-4" x1="9" y1="33" x2="18" y2="33"/><line class="cls-4" x1="46" y1="33" x2="55" y2="33"/></g></svg>