<?xml version="1.0" encoding="UTF-8" standalone="no"?> <svg xmlns="http://www.w3.org/2000/svg" viewBox="0 0 64 64"><defs><style>.cls-1{fill:#8065c4;}.cls-1,.cls-2,.cls-3,.cls-4,.cls-5,.cls-6,.cls-7{stroke:#54596e;stroke-linecap:round;stroke-linejoin:round;stroke-width:2px;}.cls-2{fill:#55a6ff;}.cls-3{fill:#dfdfdf;}.cls-4{fill:#999;}.cls-5{fill:#ffd578;}.cls-6{fill:#fff35f;}.cls-7{fill:#ff80c3;}</style></defs><title>protection</title><g id="protection"><path class="cls-1" d="M6,12.74a51,51,0,0,0,26,46,51,51,0,0,0,26-46l-26-6Z"/><path class="cls-2" d="M11,16.59A41.2,41.2,0,0,0,32,53.74,41.2,41.2,0,0,0,53,16.59L32,11.74Z"/><path class="cls-3" d="M48.63,40.74H42.5v-5h-5v5H31.87c-2.41,0-4.87,1.68-4.87,3.74v3.26H53V44.06C53,42.23,50.77,40.74,48.63,40.74Z"/><path class="cls-4" d="M49,32.24l.5-6.1a7.18,7.18,0,0,0-6.94-7.4H37.44a7.18,7.18,0,0,0-6.94,7.4l.5,6.1"/><path class="cls-5" d="M36.68,27.69c-5,0-5.68-4.33-5.68.48v4a11.86,11.86,0,0,0,2.76,7A8.21,8.21,0,0,0,40,41.74a8.21,8.21,0,0,0,6.24-2.5,11.86,11.86,0,0,0,2.76-7v-4C49,23.35,41.65,27.69,36.68,27.69Z"/><path class="cls-6" d="M13,43.74l1-15.63c0-5.18,4.48-9.37,10-9.37h0c5.52,0,10,4.2,10,9.37l1,15.63Z"/><path class="cls-7" d="M32.63,40.74H26.5v-5h-5v5H15.87c-2.41,0-4.87,1.68-4.87,3.74v3.26H37V44.06C37,42.23,34.77,40.74,32.63,40.74Z"/><path class="cls-5" d="M20.68,27.69c-5,0-5.68-4.33-5.68.48v4a11.86,11.86,0,0,0,2.76,7A8.21,8.21,0,0,0,24,41.74a8.21,8.21,0,0,0,6.24-2.5,11.86,11.86,0,0,0,2.76-7v-4C33,23.35,25.65,27.69,20.68,27.69Z"/></g></svg>